<svg xmlns="http://www.w3.org/2000/svg" viewBox="0 0 560 160" width="560" height="160"><g transform="translate(8,20)"><circle cx="60" cy="60" r="56" fill="none" stroke="#0a3d1f" stroke-width="2"></circle><circle cx="60" cy="60" r="48.5" fill="none" stroke="#0a3d1f" stroke-width="1"></circle><path fill="#0a3d1f" d="M60 5 L64 11 L60 17 L56 11 Z"></path><path fill="#0a3d1f" d="M115 60 L109 64 L103 60 L109 56 Z"></path><path fill="#0a3d1f" d="M60 115 L64 109 L60 103 L56 109 Z"></path><path fill="#0a3d1f" d="M5 60 L11 64 L17 60 L11 56 Z"></path><path fill="#0a3d1f" fill-rule="evenodd" d="M44 80 L44 60 A16 16 0 0 1 60 44 A16 16 0 0 1 76 60 L76 80 L70 80 L70 61 A10 10 0 0 0 60 51 A10 10 0 0 0 50 61 L50 80 Z"></path><path fill="#0a3d1f" d="M60 56 L62.5 62 L68 64 L62.5 66 L60 72 L57.5 66 L52 64 L57.5 62 Z"></path></g><text x="150" y="86" font-family="Marcellus, serif" font-size="52" letter-spacing="3" fill="#0a3d1f">BAB UL ILM</text><text x="152" y="116" font-family="Jost, sans-serif" font-weight="500" font-size="15" letter-spacing="4" fill="#0a3d1f">UNDER ALIA UNIVERSITY OF HOLLAND</text></svg>