<svg xmlns="http://www.w3.org/2000/svg" viewBox="0 0 120 120" width="120" height="120"><defs><path id="t" fill="none" d="M 15.5 60 A 44.5 44.5 0 0 1 104.5 60"></path><path id="b" fill="none" d="M 9.7 60 A 50.3 50.3 0 0 0 110.3 60"></path></defs><circle cx="60" cy="60" r="57" fill="none" stroke="#d4af5a" stroke-width="1.5"></circle><circle cx="60" cy="60" r="40" fill="none" stroke="#d4af5a" stroke-width="1"></circle><text fill="#d4af5a" font-family="Marcellus, serif" font-size="11" letter-spacing="2" text-anchor="middle"><textPath href="#t" startOffset="50%">BAB UL ILM</textPath></text><text fill="#d4af5a" font-family="Jost, sans-serif" font-weight="500" font-size="6" letter-spacing="1.05" text-anchor="middle"><textPath href="#b" startOffset="50%">UNDER ALIA UNIVERSITY OF HOLLAND</textPath></text><path fill="#d4af5a" d="M7 60 L11 63.5 L15 60 L11 56.5 Z"></path><path fill="#d4af5a" d="M105 60 L109 63.5 L113 60 L109 56.5 Z"></path><path fill="#d4af5a" fill-rule="evenodd" d="M46 78 L46 60 A14 14 0 0 1 60 46 A14 14 0 0 1 74 60 L74 78 L68.5 78 L68.5 61 A8.5 8.5 0 0 0 60 52.5 A8.5 8.5 0 0 0 51.5 61 L51.5 78 Z"></path><path fill="#d4af5a" d="M60 56 L62 61 L67 63 L62 65 L60 70 L58 65 L53 63 L58 61 Z"></path></svg>